<?xml version="1.0" standalone="no"?>
<!DOCTYPE svg PUBLIC "-//W3C//DTD SVG 1.1//EN" "http://www.w3.org/Graphics/SVG/1.1/DTD/svg11.dtd" >
<svg xmlns="http://www.w3.org/2000/svg" xmlns:xlink="http://www.w3.org/1999/xlink" version="1.1">
<metadata></metadata>
<defs>
<font id="tabacg2-bolduploaded_file" horiz-adv-x="1179" >
<font-face units-per-em="2048" ascent="1571" descent="-477" />
<missing-glyph horiz-adv-x="563" />
<glyph unicode="&#xfb01;" horiz-adv-x="1370" d="M27 930v90h168v127q0 259 143 387q144 129 371 129q183 0 372 -82v-319h-65l-189 315q-164 20 -255 -66t-91 -258v-233h334l340 45l19 -16v-934l147 -52v-63h-567v63l133 52v766l-109 49h-297v-815l133 -52v-63h-567v63l148 52v815h-168z" />
<glyph unicode="&#xfb02;" horiz-adv-x="1349" d="M27 930v90h168v174q0 241 143 354q145 115 364 115q124 0 263 -37l190 37l19 -16v-1532l147 -52v-63h-567v63l133 52v1290l-94 172q-312 18 -312 -297v-260h228v-90h-228v-815l133 -52v-63h-567v63l148 52v815h-168z" />
<glyph unicode="&#xfb03;" horiz-adv-x="2062" d="M27 930v90h168v162q0 243 147 360q146 119 373 119q204 0 381 -80q119 82 305 82q184 0 373 -82v-319h-66l-188 315q-164 20 -255 -66t-91 -258v-233h333l340 45l21 -16v-934l145 -52v-63h-567v63l135 52v766l-111 49h-296v-815l135 -52v-63h-555v63l133 52v815h-406 v-815l133 -52v-63h-567v63l148 52v815h-168zM481 1020h406v127q0 141 47 237l-105 187q-180 18 -264 -59.5t-84 -251.5v-240z" />
<glyph unicode="&#xfb04;" horiz-adv-x="2041" d="M27 930v90h168v162q0 243 147 360q146 119 373 119q193 0 370 -74q122 76 310 76q123 0 262 -37l190 37l21 -16v-1532l145 -52v-63h-567v63l135 52v1290l-96 172q-311 18 -311 -297v-260h227v-90h-227v-815l135 -52v-63h-555v63l133 52v815h-406v-815l133 -52v-63h-567 v63l148 52v815h-168zM481 1020h406v174q0 121 39 203l-97 174q-180 18 -264 -59.5t-84 -251.5v-240z" />
<glyph horiz-adv-x="0" />
<glyph horiz-adv-x="682" />
<glyph unicode=" "  horiz-adv-x="563" />
<glyph unicode="&#x09;" horiz-adv-x="563" />
<glyph unicode="&#xa0;" horiz-adv-x="563" />
<glyph unicode="!" horiz-adv-x="581" d="M104 1454h371l-147 -995h-76zM123 155.5q0 71.5 47 118.5q50 47 121.5 47t118.5 -47q50 -47 50 -118.5t-50 -120.5q-47 -47 -118.5 -47t-121.5 47q-47 49 -47 120.5z" />
<glyph unicode="&#x22;" horiz-adv-x="845" d="M96 1382q-17 82 24 138.5t120 56.5q78 0 119 -56.5t22 -138.5l-115 -534h-51zM498 1382q-19 82 21.5 138.5t119.5 56.5t119.5 -56.5t23.5 -138.5l-116 -534h-52z" />
<glyph unicode="#" horiz-adv-x="1310" d="M0 416v94h258l80 209l74 209h-283v94h315l150 424l98 -37l-145 -387h436l152 424l98 -37l-146 -387h224v-94h-260l-88 -238l-64 -180h283v-94h-316l-161 -457l-99 37l156 420h-436l-162 -457l-98 37l157 420h-223zM358 510h441l78 209l73 209h-440l-88 -238z" />
<glyph unicode="$" horiz-adv-x="1228" d="M98 82v346h66l196 -352q118 -22 207 -13l2 510q-218 97 -286 146q-185 132 -185 344q0 186 131 293q133 112 338 121v243h84l-2 -243q202 -6 402 -91v-319h-68l-188 313q-74 15 -146 15l-4 -494q224 -99 285 -139q198 -131 198 -346q0 -182 -129.5 -295.5t-349.5 -138.5 l2 -248h-84v241h-28q-218 0 -441 107zM373 1163q0 -72 47.5 -125t148.5 -102l-2 450q-194 -41 -194 -223zM645 541l4 -461q93 26 145 87.5t52 147.5q0 71 -49.5 123.5t-151.5 102.5z" />
<glyph unicode="%" horiz-adv-x="2007" d="M47 983q0 204 113 320t280 116q166 0 279 -116q112 -115 112 -320q0 -206 -112 -321q-115 -115 -279 -115q-165 0 -280 115q-113 116 -113 321zM315 983q0 -172 34 -270.5t91 -98.5q56 0 89.5 98.5t33.5 270.5t-33.5 270.5t-89.5 98.5q-57 0 -91 -98.5t-34 -270.5z M463 -125l489 827l473 840l115 -65l-489 -828l-473 -839zM1174 422q0 204 112 319q114 117 281 117q164 0 278 -117q113 -116 113 -319q0 -206 -113 -322q-114 -114 -278 -114q-167 0 -281 114q-112 115 -112 322zM1442 422q0 -172 34 -270.5t91 -98.5q56 0 89.5 98.5 t33.5 270.5t-33.5 270.5t-89.5 98.5q-57 0 -91 -98.5t-34 -270.5z" />
<glyph unicode="&#x26;" horiz-adv-x="1501" d="M53 330q0 275 334 407v8q-184 205 -184 377q0 151 104 252q108 105 314 105q178 0 281.5 -81t103.5 -212q0 -222 -326 -342v-6l414 -451h6q64 178 24 334l-178 84v59h490v-59l-158 -84q7 -97 -27 -203t-98 -194l96 -105q139 -148 234 -145v-64q-93 -35 -197 -35 q-107 0 -183.5 33t-146.5 115q-180 -148 -426 -148q-231 0 -354 105q-123 108 -123 250zM346 422q0 -144 85.5 -234t232.5 -90q120 0 239 82l-465 508q-92 -109 -92 -266zM467 1219q-3 -146 162 -326q119 104 119 299q0 92 -36.5 148.5t-107.5 56.5q-62 0 -99.5 -48.5 t-37.5 -129.5z" />
<glyph unicode="'" horiz-adv-x="446" d="M96 1382q-17 82 24 138.5t120 56.5q78 0 119 -56.5t22 -138.5l-115 -534h-51z" />
<glyph unicode="(" horiz-adv-x="759" d="M74 727q0 340 170 614q175 277 475 428l35 -45q-171 -149 -271 -415q-96 -265 -96 -582q0 -316 96 -584q100 -265 271 -413l-35 -45q-302 152 -475 426q-170 274 -170 616z" />
<glyph unicode=")" horiz-adv-x="759" d="M6 -270q173 150 268 413q99 264 99 584q0 321 -99 582q-95 264 -268 415l35 45q301 -151 473 -428q172 -272 172 -614q0 -344 -172 -616q-170 -274 -473 -426z" />
<glyph unicode="*" horiz-adv-x="968" d="M116.5 1073.5q25.5 53.5 94.5 63.5l211 41v8l-211 39q-69 12 -94 65.5t10 110.5q36 61 91.5 66t103.5 -50l139 -164l6 4l-72 203q-24 66 10 113t101 47q70 0 103.5 -46.5t8.5 -113.5l-71 -203l6 -4l141 164q45 53 102 47.5t93 -63.5q36 -57 11.5 -110.5t-95.5 -65.5 l-213 -39v-8l211 -41q71 -10 95.5 -63.5t-11.5 -110.5q-36 -61 -92.5 -66.5t-104.5 49.5l-137 164l-8 -4l73 -203q25 -67 -8.5 -113.5t-103.5 -46.5q-67 0 -101 47.5t-10 112.5l74 203l-4 4l-141 -164q-48 -55 -104 -49.5t-93 66.5q-36 57 -10.5 110.5z" />
<glyph unicode="+" d="M102 639v127h424v424h127v-424h424v-127h-424v-424h-127v424h-424z" />
<glyph unicode="," horiz-adv-x="542" d="M71 143q-7 49 11.5 92.5t63 74t104.5 30.5q108 0 178 -81.5t70 -205.5q0 -165 -109 -274q-107 -107 -268 -148l-19 47q107 46 148 142q40 94 0 168q-41 74 -137 71q-35 35 -42 84z" />
<glyph unicode="-" horiz-adv-x="698" d="M88 426v192h522v-192h-522z" />
<glyph unicode="." horiz-adv-x="542" d="M84 162q0 80 53 132t135 52q78 0 131.5 -52.5t53.5 -131.5t-53.5 -133t-131.5 -54q-81 0 -134.5 53.5t-53.5 133.5z" />
<glyph unicode="/" horiz-adv-x="909" d="M6 -360l393 1056l377 1061l125 -47l-393 -1055l-377 -1063z" />
<glyph unicode="0" horiz-adv-x="1290" d="M68 702q0 346 165 535q166 193 412 193t412 -193q166 -190 166 -535q0 -343 -166 -536q-167 -191 -412 -191t-412 191q-165 192 -165 536zM393 702q0 -301 70 -473t182 -172q113 0 183.5 172t70.5 473t-70.5 473.5t-183.5 172.5q-111 0 -181.5 -172.5t-70.5 -473.5z" />
<glyph unicode="1" horiz-adv-x="811" d="M47 0v63l217 66v1108l-217 49v60l502 84l18 -17v-1284l215 -66v-63h-735z" />
<glyph unicode="2" horiz-adv-x="1185" d="M76 61q672 635 672 1000q0 153 -98.5 221t-266.5 37l-201 -336h-65v307q262 140 485 140q226 0 345.5 -106t119.5 -280q0 -362 -684 -786l2 -8l213 4h496v-254h-1000z" />
<glyph unicode="3" horiz-adv-x="1144" d="M68 86v346h65l209 -354q178 -34 295 51t117 250q0 133 -73.5 213t-209.5 80h-43v90h43q123 0 184 94q62 95 62 209q0 153 -88.5 222.5t-261.5 37.5l-191 -319h-65v303q248 121 458 121q214 0 337.5 -91.5t123.5 -259.5q0 -126 -97 -222t-265 -122v-8q190 -12 298.5 -108 t108.5 -252q0 -126 -79.5 -220.5t-202.5 -134.5q-115 -37 -252 -37q-236 0 -473 111z" />
<glyph unicode="4" horiz-adv-x="1226" d="M33 532l708 885l234 -20v-842h194v-209h-194v-346h-297v346h-612zM145 559l5 -8l217 4h311v446l4 209l-8 2l-129 -165l-260 -324z" />
<glyph unicode="5" horiz-adv-x="1105" d="M61 76v289h66l174 -289q190 -27 307 65q123 95 123 269q0 209 -160 280q-159 70 -417 -18l-23 14l49 719h772v-223h-694l-31 -400l9 -4q149 76 301 88t258 -39q113 -51 180 -155t67 -240q0 -224 -157 -342q-157 -115 -383 -115q-232 0 -441 101z" />
<glyph unicode="6" horiz-adv-x="1175" d="M68 549q0 150 46.5 282.5t127 231t189 175t231.5 124t256 68.5l16 -62q-206 -86 -329.5 -221t-178.5 -340l8 -4q127 63 239.5 71.5t197.5 -31t147 -122.5q90 -122 90 -281q0 -212 -152 -340q-149 -125 -370 -125q-219 0 -371 152q-147 150 -147 422zM391 498 q0 -443 203 -443q197 0 197 363q0 200 -101 291q-97 93 -282 16q-17 -116 -17 -227z" />
<glyph unicode="7" horiz-adv-x="1028" d="M47 979v426h952l19 -59l-469 -1346h-299l-19 27l537 954l106 180l-4 8l-211 -4h-444l-102 -186h-66z" />
<glyph unicode="8" horiz-adv-x="1204" d="M68 336q0 141 89.5 221.5t264.5 124.5v6q-146 75 -218.5 161.5t-72.5 203.5q0 150 135 264q137 113 350 113q190 0 324 -101q135 -102 135 -244q0 -210 -301 -280v-6q184 -78 273.5 -172.5t89.5 -235.5q0 -188 -174 -301q-177 -115 -369 -115q-232 0 -379 99t-147 262z M373 367q0 -150 66 -231t173 -81q100 0 164 75.5t64 193.5q0 101 -82 168q-83 71 -254 151q-131 -101 -131 -276zM410 1122q0 -93 66 -156t214 -128q105 95 105 249q0 120 -54 191.5t-141 71.5q-85 0 -137.5 -62.5t-52.5 -165.5z" />
<glyph unicode="9" horiz-adv-x="1175" d="M68 965q0 213 151 340q149 125 371 125q219 0 368 -152q150 -150 150 -422q0 -150 -46.5 -282.5t-127 -231t-189 -175t-231.5 -124t-256 -68.5l-16 62q206 86 329.5 221t178.5 340l-9 4q-127 -63 -239.5 -71.5t-197 31t-146.5 120.5q-90 122 -90 283zM385 987 q0 -199 98 -293q101 -90 285 -14q16 109 16 227q0 443 -200 443q-199 0 -199 -363z" />
<glyph unicode=":" horiz-adv-x="542" d="M84 162q0 80 53 132t135 52q78 0 131.5 -52.5t53.5 -131.5t-53.5 -133t-131.5 -54q-81 0 -134.5 53.5t-53.5 133.5zM84 854q0 80 53.5 133t134.5 53q78 0 131.5 -53.5t53.5 -132.5t-53.5 -131.5t-131.5 -52.5q-82 0 -135 52t-53 132z" />
<glyph unicode=";" horiz-adv-x="542" d="M71 143q-7 49 11.5 92.5t63 74t104.5 30.5q108 0 178 -81.5t70 -205.5q0 -165 -109 -274q-107 -107 -268 -148l-19 47q107 46 148 142q40 94 0 168q-41 74 -137 71q-35 35 -42 84zM90 854q0 80 53.5 133t135.5 53q78 0 131 -53.5t53 -132.5t-53 -131.5t-131 -52.5 q-82 0 -135.5 52t-53.5 132z" />
<glyph unicode="&#x3c;" d="M123 639v127l874 418l54 -111l-613 -293l-159 -69v-9l159 -69l613 -293l-54 -119z" />
<glyph unicode="=" d="M102 428v127h975v-127h-975zM102 850v127h975v-127h-975z" />
<glyph unicode="&#x3e;" d="M129 332l614 293l160 69v8l-160 70l-614 293l53 119l875 -418v-127l-875 -418z" />
<glyph unicode="?" horiz-adv-x="1062" d="M76 1063v303q223 113 461 113q222 0 336 -85.5t114 -240.5q0 -112 -92 -228.5t-272 -222.5l-80 -243h-74l-68 286q135 124 194.5 215t59.5 191q0 132 -83 193.5t-240 27.5l-191 -309h-65zM338 156q0 71 47 118q49 47 121 47t119 -47q49 -47 49 -118.5t-49 -120.5 q-47 -47 -119 -47t-121 47q-47 50 -47 121z" />
<glyph unicode="@" horiz-adv-x="2172" d="M98 358q0 233 71.5 431t192.5 325q117 126 265 209q270 156 565 156q144 1 275 -30t242.5 -95t193 -156t127.5 -220.5t45 -281.5q0 -286 -172 -503q-170 -218 -435 -218q-280 0 -239 269l-8 4q-217 -273 -400 -273q-123 0 -192.5 103t-69.5 276q0 278 201 494 q199 217 446 217q121 0 228 -45l182 45l16 -16l-143 -820q-30 -159 78 -159q135 0 241 161q109 165 109 455q0 318 -207 516q-205 199 -510 199q-163 0 -316 -62t-282 -182q-134 -122 -212.5 -325t-78.5 -451q0 -360 193 -553t518 -193q289 0 547 101l14 -41 q-290 -170 -606 -170q-393 0 -637 221q-242 220 -242 612zM846 346q0 -196 112 -196q107 0 281 192l96 545q-88 94 -180 94q-119 0 -213 -193q-96 -194 -96 -442z" />
<glyph unicode="A" horiz-adv-x="1466" d="M-25 0v59l138 82l508 1317h219l510 -1343l133 -52v-63h-654v63l179 52l-138 362h-524l-127 -336l213 -82v-59h-457zM377 565h459l-152 400l-76 209h-6l-76 -209z" />
<glyph unicode="B" horiz-adv-x="1404" d="M68 0v63l176 52v1224l-176 52v63h714q209 0 348 -86q138 -86 138 -260q0 -266 -385 -340v-8q211 -13 332.5 -115t121.5 -258q0 -197 -141 -291q-143 -96 -358 -96h-770zM563 88h146q133 0 209.5 79t76.5 228q0 147 -79 228.5t-214 81.5h-139v-617zM563 793h103 q131 0 207.5 75.5t76.5 214.5q0 137 -74 210t-204 73h-109v-573z" />
<glyph unicode="C" horiz-adv-x="1390" d="M68 727q0 362 213 557q216 195 532 195q275 0 502 -115v-328h-66l-184 330q-92 18 -172 18q-232 0 -357.5 -171t-125.5 -486t125.5 -486t357.5 -171q79 0 170 18l186 340h66v-338q-227 -115 -502 -115q-316 0 -532 195q-213 195 -213 557z" />
<glyph unicode="D" horiz-adv-x="1603" d="M68 0v63l176 52v1224l-176 52v63h714q346 0 549 -182t203 -524q0 -346 -207 -547t-545 -201h-714zM563 88h152q216 0 348 176q131 177 131 486q0 297 -127.5 456.5t-351.5 159.5h-152v-1278z" />
<glyph unicode="E" horiz-adv-x="1357" d="M68 0v63l176 52v1224l-176 52v63h1202v-412h-68l-158 324h-481v-588l447 47v-176l-447 47v-608h510l170 344h68v-432h-1243z" />
<glyph unicode="F" horiz-adv-x="1255" d="M68 0v63l176 52v1224l-176 52v63h1161v-412h-66l-159 324h-441v-608l438 47v-176l-438 47v-559l230 -54v-63h-725z" />
<glyph unicode="G" horiz-adv-x="1521" d="M68 727q0 362 213 557q216 195 532 195q275 0 502 -115v-328h-66l-184 330q-92 18 -172 18q-232 0 -357.5 -171t-125.5 -486t120.5 -488t341.5 -173q74 0 138 12v483l-232 55v64h703v-64l-150 -51v-475q-233 -115 -518 -115q-316 0 -532 195q-213 195 -213 557z" />
<glyph unicode="H" horiz-adv-x="1708" d="M68 0v63l176 52v1224l-176 52v63h669v-63l-174 -52v-557h582v557l-176 52v63h669v-63l-174 -52v-1224l174 -52v-63h-669v63l176 52v577h-582v-577l174 -52v-63h-669z" />
<glyph unicode="I" horiz-adv-x="806" d="M68 0v63l176 52v1224l-176 52v63h669v-63l-174 -52v-1224l174 -52v-63h-669z" />
<glyph unicode="J" horiz-adv-x="1073" d="M37 45v371h65l187 -355q11 -1 22 -1q100 0 167 67q73 74 73 217v995l-189 52v63h685v-63l-175 -52v-927q-3 -224 -153 -332q-150 -105 -367 -105q-163 0 -315 70z" />
<glyph unicode="K" horiz-adv-x="1574" d="M68 0v63l176 52v1224l-176 52v63h669v-63l-174 -52v-641l8 -4l148 158l452 461l-178 82v59h506v-59l-188 -82l-391 -387l579 -813l127 -50v-63h-663v63l147 52l-416 590l-131 -130v-460l174 -52v-63h-669z" />
<glyph unicode="L" horiz-adv-x="1345" d="M68 0v63l176 52v1224l-176 52v63h710v-63l-215 -54v-1249h457l190 383h66v-471h-1208z" />
<glyph unicode="M" horiz-adv-x="2039" d="M33 0v59l157 82l150 1184l-178 66v63h491l301 -897l64 -205h8l64 207l278 895h490v-63l-187 -52l154 -1224l172 -52v-63h-674v63l188 52l-102 837l-23 217h-8l-61 -204l-316 -965h-184l-332 983l-65 207h-8l-23 -213l-94 -836l229 -82v-59h-491z" />
<glyph unicode="N" horiz-adv-x="1531" d="M47 0v59l168 82l8 1184l-176 66v63h453l604 -790l133 -179l8 4l-4 222l-4 602l-236 82v59h506v-59l-166 -82l-6 -1313l-114 -14l-770 1009l-134 179l-6 -5l2 -221l4 -807l236 -82v-59h-506z" />
<glyph unicode="O" horiz-adv-x="1589" d="M68 727q0 236 106 408q111 181 268 260q166 84 353 84q184 0 350 -84q157 -79 268 -260q107 -174 107 -408q0 -236 -107 -410q-110 -178 -268 -258q-119 -62 -259 -78q-49 -6 -98 -6q-90 -1 -174 19q-132 30 -249.5 113t-190.5 210q-106 172 -106 410zM410 727 q0 -319 108 -494q110 -174 277 -174q162 0 274 177q111 176 111 491q0 317 -111 492q-111 176 -274 176q-166 0 -277 -176q-108 -175 -108 -492z" />
<glyph unicode="P" horiz-adv-x="1353" d="M68 0v63l176 52v1224l-176 52v63h729q241 0 378.5 -103t137.5 -307q0 -211 -150 -319q-151 -109 -389 -109h-211v-499l230 -54v-63h-725zM563 705h115q142 0 221.5 87t79.5 250q0 324 -281 324h-135v-661z" />
<glyph unicode="Q" horiz-adv-x="1589" d="M68 727q0 236 106 408q111 181 268 260q166 84 353 84q195 0 355 -86t263 -258q107 -174 107 -408q0 -227 -100.5 -401.5t-284.5 -266.5v-8q206 -149 315 -149q54 0 84 37l47 -25q-91 -227 -295 -227q-80 0 -165 39t-152 96q-169 144 -301 164q-218 36 -398 204 q-93 90 -147.5 230.5t-54.5 306.5zM410 727q0 -319 108 -494q110 -174 277 -174q162 0 274 177q111 176 111 491q0 317 -111 492q-111 176 -274 176q-166 0 -277 -176q-108 -175 -108 -492z" />
<glyph unicode="R" horiz-adv-x="1540" d="M68 0v63l176 52v1224l-176 52v63h714q223 0 365 -92q141 -92 141 -279q0 -142 -107 -240t-294 -130v-8q53 -6 100.5 -24.5t84 -42t70.5 -59.5t58 -68.5t49 -77.5t40 -77t34 -77q99 -210 213 -213v-66q-106 -25 -176 -25q-128 0 -222 67.5t-141 174.5q-38 84 -82 203 q-87 244 -223 244h-129v-547l203 -54v-63h-698zM563 752h103q137 0 218 84t81 235q0 295 -281 295h-121v-614z" />
<glyph unicode="S" horiz-adv-x="1200" d="M84 82v346h68l194 -352q80 -16 149 -16q113 0 197 42q137 70 137 213q0 24 -6 45.5t-14.5 39.5t-25 36t-31 31t-40 29t-44 26t-50 25t-51 23.5t-55.5 23.5t-55 24q-141 69 -193 105q-79 56 -125 131q-55 88 -55 209q0 193 143 303q143 113 365 113q235 0 444 -93v-319 h-65l-189 313q-73 14 -135 14q-99 0 -170 -36q-115 -59 -115 -199q0 -43 22 -81q22 -40 55.5 -68.5t88 -59t100.5 -50.5t112.5 -48.5t107.5 -48.5q119 -58 192.5 -156.5t73.5 -230.5q0 -213 -168 -326q-168 -115 -422 -115q-217 0 -440 107z" />
<glyph unicode="T" horiz-adv-x="1372" d="M27 1042v412h1316v-412h-65l-160 324h-272v-1251l215 -52v-63h-752v63l217 52v1251h-272l-162 -324h-65z" />
<glyph unicode="U" horiz-adv-x="1503" d="M23 1391v63h669v-63l-178 -52v-876q0 -166 92 -263.5t250 -97.5q175 0 273 110t98 298l-6 803l-217 82v59h503v-59l-182 -82l-6 -803q-1 -261 -148.5 -398t-408.5 -137q-256 0 -412 138q-155 137 -155 403v823z" />
<glyph unicode="V" horiz-adv-x="1482" d="M6 1391v63h660v-63l-179 -52l304 -794l77 -219h9l79 219l287 768l-217 82v59h465v-59l-141 -82l-510 -1317h-185l-514 1343z" />
<glyph unicode="W" horiz-adv-x="2166" d="M10 1391v63h658v-63l-185 -52l242 -729l68 -221h8l63 221l250 844h139l285 -854l70 -221h8l65 221l222 713l-215 82v59h466v-59l-145 -82l-426 -1317h-178l-258 776l-70 223h-8l-63 -223l-236 -776h-180l-445 1343z" />
<glyph unicode="X" horiz-adv-x="1452" d="M-8 0v59l168 82l418 521l-453 677l-133 52v63h686v-63l-166 -52l188 -280l109 -170h8l127 170l197 254l-195 82v59h477v-59l-157 -82l-402 -494l471 -704l135 -52v-63h-688v63l166 52l-203 305l-110 172h-8l-129 -172l-213 -279l194 -82v-59h-487z" />
<glyph unicode="Y" horiz-adv-x="1449" d="M-2 1391v63h666v-63l-164 -50l245 -417l111 -191h8l109 191l231 391l-207 80v59h463v-59l-147 -80l-412 -668v-532l215 -52v-63h-751v63l215 52v473l-453 753z" />
<glyph unicode="Z" horiz-adv-x="1275" d="M43 61l686 1119l121 180l-4 10l-223 -4h-281l-172 -319h-66v407h1108l21 -59l-688 -1121l-121 -180l4 -10l213 4h346l182 336h66v-424h-1172z" />
<glyph unicode="[" horiz-adv-x="720" d="M156 -272v1998h551v-88h-261v-1822h261v-88h-551z" />
<glyph unicode="\" horiz-adv-x="909" d="M6 1716l127 47l377 -1063l393 -1054l-127 -45l-377 1061z" />
<glyph unicode="]" horiz-adv-x="720" d="M14 -184h260v1822h-260v88h551v-1998h-551v88z" />
<glyph unicode="^" d="M109 530l417 875h127l418 -875l-119 -53l-290 613l-70 161h-8l-72 -161l-291 -613z" />
<glyph unicode="_" horiz-adv-x="1536" d="M123 -25h1290v-161h-1290v161z" />
<glyph unicode="`" horiz-adv-x="645" d="M84 1544l10 17h299l139 -381l-43 -15z" />
<glyph unicode="a" horiz-adv-x="1107" d="M55 240q0 163 151 263t441 120q0 311 -229 311q-96 0 -273 -60l-14 54q192 137 410 137q180 0 286.5 -104t106.5 -310v-440q0 -60 32 -80q24 -15 83 -15q18 0 38 1v-54q-76 -88 -210 -88q-78 0 -138 42.5t-77 119.5l-9 4q-138 -166 -319 -166q-123 0 -201 72t-78 193z M354 287q0 -148 121 -148q90 0 172 64v346q-130 -6 -211.5 -78t-81.5 -184z" />
<glyph unicode="b" horiz-adv-x="1243" d="M10 1524v59l416 80l18 -16v-732l9 -4q145 154 323 154q163 0 281 -139q119 -137 119 -391q0 -279 -164 -420q-166 -140 -406 -140q-228 0 -448 109v1395zM444 80q66 -17 131 -17q138 0 215.5 115t77.5 336q0 395 -225 395q-98 0 -199 -73v-756z" />
<glyph unicode="c" horiz-adv-x="1019" d="M68 520q0 232 157 389q156 156 416 156q152 0 297 -53v-328h-66l-163 297q-11 1 -21 1q-120 0 -215 -95q-98 -101 -98 -338q0 -205 87.5 -312.5t239.5 -107.5q122 0 252 47l19 -51q-156 -150 -375 -150t-377 146q-153 144 -153 399z" />
<glyph unicode="d" horiz-adv-x="1253" d="M68 506q0 137 43 246.5t114 176t157.5 101.5t178.5 35q135 0 240 -57v471l-148 45v59l414 80l20 -16v-1487l146 -45v-60l-414 -80l-18 17v133l-8 4q-145 -154 -326 -154q-161 0 -283 140q-116 137 -116 391zM375 524q0 -393 225 -393q95 0 201 74v723q-79 33 -166 33 q-119 0 -189.5 -113t-70.5 -324z" />
<glyph unicode="e" horiz-adv-x="1071" d="M68 500v6q0 129 44 237q46 111 120 181t166 108q83 34 168 33h18q226 -1 336 -147q80 -106 80 -271q0 -63 -11 -135h-614q1 -205 77.5 -294t229.5 -89q136 0 272 47l19 -51q-77 -71 -183 -110.5t-212 -39.5q-219 0 -365 134q-145 136 -145 391zM375 580l346 20q3 49 3 92 q0 121 -26 194q-36 99 -116 99q-83 0 -141.5 -106t-65.5 -299z" />
<glyph unicode="f" horiz-adv-x="843" d="M27 930v90h168v174q0 240 129 354q130 115 331 115q134 0 277 -47v-320h-66l-161 289h-7q-82 0 -147 -65q-70 -67 -70 -211v-289h279v-90h-279v-815l203 -52v-63h-637v63l148 52v815h-168z" />
<glyph unicode="g" horiz-adv-x="1181" d="M35 -223q0 76 60 135.5t161 79.5v8q-80 53 -80 137q0 22 6 47q27 118 144 207v8q-110 42 -172 122.5t-62 187.5q0 166 137 260q140 96 326 96q92 0 178 -25h367v-63l-154 -74v-6q74 -77 74 -188q0 -165 -139 -260t-326 -95q-53 0 -156 23q-39 -43 -39 -83q0 -13 4 -26 q17 -51 89 -51h245q209 0 316.5 -75.5t107.5 -221.5q0 -164 -178 -278q-179 -117 -465 -117q-216 0 -330 69t-114 183zM315 -281q63 -112 238 -112q150 0 233.5 61.5t83.5 165.5q0 56 -42 89.5t-119 33.5h-299q-44 0 -82 12q-42 -75 -42 -143q0 -56 29 -107zM383 709 q0 -131 47.5 -204t126.5 -73t125.5 72t46.5 205t-46.5 206.5t-125.5 73.5t-126.5 -73.5t-47.5 -206.5z" />
<glyph unicode="h" horiz-adv-x="1300" d="M27 0v63l147 52v1364l-147 45v59l415 80l19 -16v-732l8 -4q145 154 344 154q144 0 228.5 -84.5t84.5 -259.5v-606l148 -52v-63h-567v63l133 52v614q0 186 -152 186q-106 0 -227 -75v-725l133 -52v-63h-567z" />
<glyph unicode="i" horiz-adv-x="675" d="M47 0v63l148 52v766l-148 45v59l416 80l18 -16v-934l148 -52v-63h-582zM170 1391q0 71 47 118q50 47 121.5 47t118.5 -47q49 -47 49 -118t-49 -121q-47 -47 -118.5 -47t-121.5 47q-47 50 -47 121z" />
<glyph unicode="j" horiz-adv-x="634" d="M12 -432q162 177 162 551v762l-147 45v59l415 80l19 -16v-859q0 -238 -110 -411t-304 -254zM150 1391q0 71 47 118q49 47 120.5 47t118.5 -47q50 -47 50 -118t-50 -121q-47 -47 -118.5 -47t-120.5 47q-47 50 -47 121z" />
<glyph unicode="k" horiz-adv-x="1245" d="M27 0v63l147 52v1364l-147 45v59l415 80l19 -16v-1155l8 -5l131 140l279 282l-144 68v63h424v-63l-153 -68l-236 -231l404 -565l112 -50v-63h-561v63l111 50l-267 374l-108 -104v-268l127 -52v-63h-561z" />
<glyph unicode="l" horiz-adv-x="634" d="M27 0v63l147 52v1364l-147 45v59l415 80l19 -16v-1532l147 -52v-63h-581z" />
<glyph unicode="m" horiz-adv-x="1921" d="M47 0v63l148 52v766l-148 45v59l416 80l18 -16v-134l8 -4q139 154 328 154q193 0 264 -160l9 -2q162 162 360 162q136 0 216.5 -85.5t80.5 -258.5v-606l147 -52v-63h-551v63l117 52v614q0 186 -139 186q-111 0 -223 -75q16 -53 16 -125v-600l117 -52v-63h-520v63l116 52 v614q0 186 -139 186q-101 0 -207 -75v-725l117 -52v-63h-551z" />
<glyph unicode="n" horiz-adv-x="1320" d="M47 0v63l148 52v766l-148 45v59l416 80l18 -16v-134l8 -4q145 154 345 154q144 0 228.5 -84.5t84.5 -259.5v-606l147 -52v-63h-567v63l133 52v614q0 186 -151 186q-107 0 -228 -75v-725l133 -52v-63h-567z" />
<glyph unicode="o" horiz-adv-x="1189" d="M68 520q0 255 155 398q156 147 373 147q213 0 369 -147q157 -145 157 -398q0 -251 -157 -399q-158 -146 -369 -146q-215 0 -373 146q-155 146 -155 399zM375 520q0 -225 58.5 -345t162.5 -120q102 0 160.5 120.5t58.5 344.5t-58.5 344.5t-160.5 120.5q-104 0 -162.5 -120 t-58.5 -345z" />
<glyph unicode="p" horiz-adv-x="1261" d="M27 -387l147 51v1217l-147 45v59l415 80l19 -16v-134l8 -4q145 154 326 154q160 0 278 -139q119 -137 119 -391q0 -269 -148 -414q-149 -146 -346 -146q-130 0 -237 58v-369l188 -51v-64h-622v64zM461 113q76 -33 166 -33q119 0 189.5 112.5t70.5 323.5q0 393 -225 393 q-100 0 -201 -73v-723z" />
<glyph unicode="q" horiz-adv-x="1232" d="M68 506q0 182 80 314t210 190q125 55 279 55q227 0 450 -109v-1292l146 -51v-64h-621v64l189 51v453l-8 4q-146 -146 -324 -146q-161 0 -283 140q-118 136 -118 391zM375 526q0 -395 225 -395q100 0 201 70v760q-64 18 -133 18q-138 0 -215.5 -115.5t-77.5 -337.5z" />
<glyph unicode="r" horiz-adv-x="913" d="M47 0v63l148 52v766l-148 45v59l416 80l18 -16v-183l8 -4q59 115 170 166q73 36 147 35q40 0 81 -10v-293l-49 -6q-53 83 -156 92q-13 1 -25 1q-90 0 -176 -56v-676l189 -52v-63h-623z" />
<glyph unicode="s" horiz-adv-x="964" d="M84 743q0 163 117 242q118 80 291 80t331 -70v-264h-65l-144 246q-51 10 -94 10q-68 0 -116 -25q-78 -41 -78 -128q0 -48 31 -83t80.5 -57.5t109.5 -42.5t119.5 -46t109 -60.5t80.5 -93t31 -136.5q0 -161 -129 -249q-130 -91 -318 -91q-182 0 -350 70v264h66l143 -248 q55 -10 103 -10q80 0 139 29q96 47 96 145q0 36 -20.5 65t-61.5 51.5t-80 38t-100 37t-96 36.5q-86 38 -140.5 112.5t-54.5 177.5z" />
<glyph unicode="t" horiz-adv-x="847" d="M27 930v90h155l221 299h66v-299h297v-90h-297v-670q3 -80 51 -116q44 -33 102 -32h14q68 4 144 35l19 -53q-58 -55 -145 -87t-169 -32q-138 0 -220.5 85.5t-82.5 240.5v629h-155z" />
<glyph unicode="u" horiz-adv-x="1294" d="M27 926v59l415 80l19 -16v-738q0 -188 153 -188q104 0 226 78v680l-148 45v59l416 80l18 -16v-889l148 -45v-60l-416 -80l-18 17v133l-9 4q-145 -154 -344 -154q-143 0 -228 85.5t-85 258.5v562z" />
<glyph unicode="v" horiz-adv-x="1126" d="M-31 977v63h568v-63l-144 -51l195 -465l82 -205h8l80 205l184 448l-174 68v63h389v-63l-115 -68l-391 -913h-176l-395 930z" />
<glyph unicode="w" horiz-adv-x="1646" d="M-31 977v63h570v-63l-158 -51l143 -414l74 -219h8l64 219l164 528h141l192 -544l72 -211h8l66 211l135 413l-166 68v63h385v-63l-119 -68l-319 -913h-185l-161 453l-74 221h-8l-66 -221l-145 -453h-184l-336 930z" />
<glyph unicode="x" horiz-adv-x="1185" d="M12 977v63h566v-63l-111 -51l115 -162l82 -117h8l94 117l125 145l-148 68v63h394v-63l-125 -68l-295 -319l350 -475l107 -52v-63h-564v63l113 52l-127 178l-82 117h-8l-96 -117l-138 -162l148 -68v-63h-393v63l123 68l311 336l-338 459z" />
<glyph unicode="y" horiz-adv-x="1126" d="M-31 977v63h568v-63l-144 -51l195 -465l82 -205h8l80 205l184 448l-174 68v63h389v-63l-115 -68l-608 -1415l-274 100l-2 25l354 293l-432 1014z" />
<glyph unicode="z" horiz-adv-x="1032" d="M68 61l442 717l123 178l-4 9l-199 -2h-111l-145 -238h-65v315h837l19 -59l-441 -719l-123 -178l5 -8l188 2h145l160 272h66v-350h-877z" />
<glyph unicode="{" horiz-adv-x="690" d="M27 682v90h28q61 0 94 38t33 105v330q0 237 111.5 360.5t365.5 161.5l15 -55q-114 -41 -158.5 -139.5t-44.5 -278.5v-268q0 -142 -44 -209.5t-163 -85.5v-8q119 -18 163 -85.5t44 -209.5v-268q0 -180 44.5 -278.5t158.5 -139.5l-15 -55q-254 38 -365.5 161.5 t-111.5 360.5v330q0 67 -33 105t-94 38h-28z" />
<glyph unicode="|" horiz-adv-x="548" d="M209 -369l8 1045l-8 1044h131l-8 -1044l8 -1045h-131z" />
<glyph unicode="}" horiz-adv-x="690" d="M16 -258q114 41 158.5 139.5t44.5 278.5v268q0 142 44.5 209.5t164.5 85.5v8q-120 18 -164.5 85.5t-44.5 209.5v268q0 180 -44.5 278.5t-158.5 139.5l15 55q255 -38 367 -162t112 -360v-330q0 -67 33 -105t94 -38h27v-90h-27q-61 0 -94 -38t-33 -105v-330 q0 -236 -112 -360t-367 -162z" />
<glyph unicode="~" horiz-adv-x="1269" d="M92 563q50 181 144.5 283t197.5 102q55 2 128 -28.5t131.5 -67.5t119.5 -67t94 -27q110 0 211 155l60 -22q-53 -181 -147 -283t-195 -102q-55 -2 -128 28.5t-131.5 67.5t-120 67t-94.5 27q-109 0 -210 -155z" />
<glyph unicode="&#xa1;" horiz-adv-x="581" d="M104 -414l148 996h76l147 -996h-371zM123 885q0 72 47 119q50 50 121.5 50t118.5 -50q50 -47 50 -119t-50 -119q-47 -47 -119 -47t-121 47q-47 47 -47 119z" />
<glyph unicode="&#xa2;" horiz-adv-x="1228" d="M156 520q0 214 133 365q131 149 360 176l-2 246h84l-2 -242h2q156 0 307 -53v-328h-67l-164 297q-46 0 -78 -4l-2 -463l2 -381q54 -4 66 -4q127 0 260 47l18 -51q-139 -133 -344 -148l2 -243h-84l2 243q-212 15 -352 158q-141 144 -141 385zM461 549q0 -308 188 -391 l4 356l-4 438q-188 -92 -188 -403z" />
<glyph unicode="&#xa3;" horiz-adv-x="1228" d="M43 668v69h207q-1 3 -4 10.5t-8 20.5t-9 25q-13 39 -20 65q-14 51 -16 57q-19 69 -19 146q0 198 134 308t360 110q212 0 403 -90v-353h-63l-207 350q-144 24 -229 -38.5t-85 -206.5q0 -70 58 -201q55 -124 65 -203h340v-69h-340q-15 -208 -288 -451l4 -6q77 51 154 78 t131 27.5t96 -13.5q16 -6 59 -25t67.5 -28.5t56.5 -19t52 -9.5q128 0 180 135l66 -14q-9 -189 -115 -276q-111 -91 -235 -91q-90 0 -195 31q-141 48 -166 57q-46 18 -103 18.5t-130.5 -22.5t-147.5 -71l-45 55q171 214 211 352q42 148 8 273h-227z" />
<glyph unicode="&#xa4;" horiz-adv-x="1228" d="M61 242l183 176q-94 119 -94 284q0 164 94 283l-183 178l93 92l176 -182q127 92 282 92q160 0 285 -94l178 184l92 -92l-184 -180q92 -121 92 -281q0 -155 -92 -282l184 -178l-92 -92l-178 184q-122 -94 -285 -94q-155 0 -282 92l-176 -182zM281 702q0 -144 94 -245 q95 -99 237 -99t236 99q96 104 96 245q0 143 -96 244q-94 101 -236 101q-143 0 -237 -101q-94 -98 -94 -244z" />
<glyph unicode="&#xa5;" horiz-adv-x="1228" d="M-37 1391v63h629v-63l-166 -50l209 -411l92 -199h8l94 199l189 381l-205 86v57h451v-57l-146 -84l-233 -449h297v-71h-334l-74 -146v-35h408v-71h-408v-426l215 -52v-63h-751v63l217 52v426h-414v71h403l-94 181h-309v71h272l-247 477z" />
<glyph unicode="&#xa6;" horiz-adv-x="548" d="M213 -369v799h123v-799h-123zM213 922v798h123v-798h-123z" />
<glyph unicode="&#xa7;" horiz-adv-x="1267" d="M88 1073q0 219 168 338q171 121 393 121q291 0 494 -90v-320h-66l-194 312q-102 10 -113 10q-32 -60 -37.5 -129t9.5 -129.5t46 -114.5q34 -56 113 -168q20 -27 64.5 -85.5t67 -89.5t52.5 -82t50 -101q45 -105 45 -213q0 -219 -168 -338q-171 -121 -394 -121 q-290 0 -493 90v320h68l192 -312q102 -10 113 -10q32 60 37.5 129t-10 129.5t-48.5 112.5q-63 103 -112 170q-22 30 -64 85.5t-65.5 88.5t-53.5 84t-51 100q-43 107 -43 213zM336 1143q0 -109 59 -230q62 -122 137 -211q85 -102 150 -215q73 -124 90 -233q21 -113 -31 -268 l4 -6q187 58 187 282q0 92 -41.5 192t-106.5 183q-70 90 -127 174q-79 115 -118 197t-50 184q-12 114 37 227l-4 6q-186 -58 -186 -282z" />
<glyph unicode="&#xa8;" horiz-adv-x="931" d="M100 1371q0 64 41 102q41 41 102.5 41t102.5 -41q41 -38 41 -102t-41 -105q-41 -38 -102.5 -38t-102.5 38q-41 41 -41 105zM545 1371q0 64 41 102q41 41 102.5 41t102.5 -41q41 -38 41 -102t-41 -105q-41 -38 -102.5 -38t-102.5 38q-41 41 -41 105z" />
<glyph unicode="&#xa9;" horiz-adv-x="1708" d="M102 727q0 320 215 535q217 217 537 217q321 0 535 -217q217 -214 217 -535q0 -320 -217 -537q-215 -215 -535 -215q-319 0 -537 215q-215 218 -215 537zM229 727q0 -270 179 -455q182 -182 446 -182q265 0 444 182q181 184 181 455q0 272 -181 453q-178 184 -444 184 q-265 0 -446 -184q-179 -182 -179 -453zM455 727q0 180 118 277q119 98 299 98q164 0 295 -58v-210h-57l-123 190q-50 4 -51 4q-106 0 -164.5 -76t-58.5 -225q0 -147 58.5 -224t162.5 -77q4 0 10.5 0.5l19.5 1.5t23 2l123 197h57v-217q-131 -58 -295 -58q-179 0 -299 99 q-118 100 -118 276z" />
<glyph unicode="&#xaa;" horiz-adv-x="802" d="M55 942q0 107 101 174t293 80q0 180 -154 180q-63 0 -166 -33l-12 43q122 93 289 93q131 0 208.5 -67.5t77.5 -201.5v-272q0 -35 18 -47t72 -12v-45q-54 -72 -159 -72q-134 0 -164 102l-6 4q-87 -106 -207 -106q-86 0 -138.5 48t-52.5 132zM301 977q0 -86 66 -86 q45 0 82 27v221q-67 -5 -107.5 -47.5t-40.5 -114.5z" />
<glyph unicode="&#xab;" horiz-adv-x="1169" d="M76 498v45l526 418l35 -35l-246 -398l246 -413l-35 -35zM537 498v45l526 418l37 -35l-246 -398l246 -413l-37 -35z" />
<glyph unicode="&#xac;" d="M102 639v127h975v-551h-125v424h-850z" />
<glyph unicode="&#xad;" horiz-adv-x="698" d="M88 426v192h522v-192h-522z" />
<glyph unicode="&#xae;" horiz-adv-x="1105" d="M102 1151q0 193 129 322t322 129q192 0 321 -129q130 -130 130 -322t-130 -322q-129 -129 -321 -129q-193 0 -322 129t-129 322zM190 1151q0 -157 103 -266q104 -107 260 -107q157 0 258 107q104 107 104 266q0 157 -104 264q-101 107 -258 107q-156 0 -260 -107 q-103 -109 -103 -264zM309 936v39l56 22v306l-56 24v39h277q76 0 121 -30t45 -83q0 -42 -32.5 -71.5t-88.5 -36.5v-2q54 -8 85.5 -35t40 -54t23 -51t37.5 -28v-39q-45 -10 -67 -10q-52 0 -86 20.5t-49.5 49.5t-25.5 58t-24 49.5t-35 20.5h-16v-127l51 -22v-39h-256z M514 1165h16q35 0 54.5 21t19.5 57q0 70 -65 70h-25v-148z" />
<glyph unicode="&#xaf;" horiz-adv-x="827" d="M102 1290v144h623v-144h-623z" />
<glyph unicode="&#xb0;" horiz-adv-x="907" d="M102 1137q0 149 99 243q102 99 252 99t252 -99q100 -93 100 -243q0 -149 -100 -246q-104 -96 -252 -96t-252 96q-99 99 -99 246zM244 1137q0 -100 59 -168q60 -66 150 -66q89 0 149 66q60 69 60 168q0 100 -60 166q-58 67 -149 67q-92 0 -150 -67q-59 -65 -59 -166z" />
<glyph unicode="&#xb1;" d="M102 0v127h975v-127h-975zM102 666v127h424v424h127v-424h424v-127h-424v-414h-127v414h-424z" />
<glyph unicode="&#xb2;" horiz-adv-x="823" d="M66 946q413 377 413 590q0 72 -48 109t-132 30l-145 -209h-58v203q194 90 334 90q155 0 236.5 -63.5t81.5 -169.5q0 -219 -426 -424l2 -6l131 2h311v-197h-682z" />
<glyph unicode="&#xb3;" horiz-adv-x="786" d="M47 956v234h55l152 -232q96 -11 157.5 36t61.5 136q0 73 -42.5 117.5t-119.5 44.5h-28v78h28q69 0 103.5 49t34.5 119q0 80 -47.5 118.5t-139.5 26.5l-133 -194h-55v192q167 78 321 78q151 0 233.5 -52.5t82.5 -154.5q0 -79 -70 -138t-184 -71v-8q130 -5 205 -61t75 -154 q0 -119 -112 -176q-111 -57 -267 -57q-158 0 -311 69z" />
<glyph unicode="&#xb4;" horiz-adv-x="645" d="M115 1180l139 381h297l10 -17l-403 -379z" />
<glyph unicode="&#xb5;" horiz-adv-x="1294" d="M27 926v59l415 80l19 -16v-738q0 -188 153 -188q104 0 226 78v680l-148 45v59l416 80l18 -16v-889l148 -45v-60l-416 -80l-18 17v133l-9 4q-153 -166 -370 -145v-410l-268 -49l-19 16v1340z" />
<glyph unicode="&#xb6;" horiz-adv-x="1134" d="M41 1116q0 168 88 253t240 85h684v-63l-193 -52v-1339h-135v1368h-111v-1368h-135v772h-92q-156 0 -251 88.5t-95 255.5z" />
<glyph unicode="&#xb7;" horiz-adv-x="542" d="M84 727q0 80 53.5 133t134.5 53q78 0 131.5 -53.5t53.5 -132.5q0 -80 -53 -133t-132 -53q-82 0 -135 52t-53 134z" />
<glyph unicode="&#xb8;" horiz-adv-x="538" d="M100 -434q60 17 93.5 49t33.5 70q0 79 -112 125l-6 30l127 160h79l-65 -76q89 -23 140.5 -75.5t51.5 -116.5q0 -85 -94 -146t-237 -61z" />
<glyph unicode="&#xb9;" horiz-adv-x="692" d="M68 901v51l161 49v611l-161 35v49l403 63l14 -12v-746l158 -49v-51h-575z" />
<glyph unicode="&#xba;" horiz-adv-x="864" d="M68 1120q0 176 106 266q110 93 258 93t258 -93q107 -91 107 -266t-107 -266q-109 -92 -258 -92t-258 92q-106 90 -106 266zM319 1120q0 -144 30.5 -219.5t82.5 -75.5q113 0 113 295t-113 295t-113 -295z" />
<glyph unicode="&#xbb;" horiz-adv-x="1169" d="M70 115l247 397l-247 414l36 35l527 -418v-45l-527 -418zM532 115l246 397l-246 414l37 35l525 -418v-45l-525 -418z" />
<glyph unicode="&#xbc;" horiz-adv-x="1783" d="M68 561v51l161 50v610l-161 35v49l403 63l14 -12v-745l158 -50v-51h-575zM281 -125l489 827l473 840l115 -65l-490 -828l-473 -839zM952 336l467 514l199 -12v-490h127v-166h-127v-182h-244v182h-397zM1042 352l5 -8l137 4h190v246l2 111l-6 4l-80 -93l-157 -170z" />
<glyph unicode="&#xbd;" horiz-adv-x="1763" d="M68 561v51l161 50v610l-161 35v49l403 63l14 -12v-745l158 -50v-51h-575zM281 -125l489 827l473 840l115 -65l-490 -828l-473 -839zM1006 45q413 377 413 590q0 72 -48 109t-132 30l-145 -209h-58v203q194 90 334 90q155 0 236.5 -63.5t81.5 -169.5q0 -219 -426 -424 l2 -6l131 2h311v-197h-682z" />
<glyph unicode="&#xbe;" horiz-adv-x="1878" d="M47 616v234h55l152 -232q95 -11 157 36.5t62 136.5q0 73 -42.5 117t-119.5 44h-28v78h28q69 0 103.5 49t34.5 119q0 80 -47.5 118.5t-139.5 26.5l-133 -194h-55v192q167 78 321 78q151 0 233.5 -52.5t82.5 -154.5q0 -79 -70 -137.5t-184 -70.5v-9q130 -5 205 -61t75 -154 q0 -119 -112 -176q-111 -57 -267 -57q-158 0 -311 69zM371 -125l489 827l473 840l115 -65l-490 -828l-473 -839zM1047 336l466 514l199 -12v-490h127v-166h-127v-182h-244v182h-397zM1137 352l4 -8l137 4h190v246l2 111l-6 4l-80 -93l-157 -170z" />
<glyph unicode="&#xbf;" horiz-adv-x="1062" d="M76 -113q0 112 92 228.5t272 222.5l80 244h74l68 -287q-135 -124 -194.5 -215t-59.5 -191q0 -132 83 -193t240 -30l191 311h65v-303q-221 -112 -459 -112q-222 0 -337 85t-115 240zM389 885q0 72 47 119q50 50 121.5 50t118.5 -50q50 -47 50 -119t-50 -119 q-47 -47 -118.5 -47t-121.5 47q-47 47 -47 119z" />
<glyph unicode="&#xc0;" horiz-adv-x="1466" d="M-25 0v59l138 82l508 1317h219l510 -1343l133 -52v-63h-654v63l179 52l-138 362h-524l-127 -336l213 -82v-59h-457zM324 1796l4 21l280 102l297 -334l-35 -29zM377 565h459l-152 400l-76 209h-6l-76 -209z" />
<glyph unicode="&#xc1;" horiz-adv-x="1466" d="M-25 0v59l138 82l508 1317h219l510 -1343l133 -52v-63h-654v63l179 52l-138 362h-524l-127 -336l213 -82v-59h-457zM377 565h459l-152 400l-76 209h-6l-76 -209zM543 1585l297 334l280 -102l4 -21l-546 -240z" />
<glyph unicode="&#xc2;" horiz-adv-x="1466" d="M-25 0v59l138 82l508 1317h219l510 -1343l133 -52v-63h-654v63l179 52l-138 362h-524l-127 -336l213 -82v-59h-457zM371 1591l278 303h152l278 -303l-26 -35l-336 144l-320 -144zM377 565h459l-152 400l-76 209h-6l-76 -209z" />
<glyph unicode="&#xc3;" horiz-adv-x="1466" d="M-25 0v59l138 82l508 1317h219l510 -1343l133 -52v-63h-654v63l179 52l-138 362h-524l-127 -336l213 -82v-59h-457zM342 1642q41 134 106 203.5t136 69.5q73 0 182 -62q107 -61 156 -61q73 0 139 106l47 -14q-41 -134 -106.5 -203t-135.5 -69q-75 0 -184 59 q-109 62 -154 62q-73 0 -137 -107zM377 565h459l-152 400l-76 209h-6l-76 -209z" />
<glyph unicode="&#xc4;" horiz-adv-x="1466" d="M-25 0v59l138 82l508 1317h219l510 -1343l133 -52v-63h-654v63l179 52l-138 362h-524l-127 -336l213 -82v-59h-457zM338 1747q0 64 41 102q41 41 102.5 41t102.5 -41q41 -38 41 -102t-41 -105q-41 -38 -102.5 -38t-102.5 38q-41 41 -41 105zM377 565h459l-152 400 l-76 209h-6l-76 -209zM823 1747q0 64 41 102q41 41 102.5 41t102.5 -41q41 -38 41 -102t-41 -105q-41 -38 -102.5 -38t-102.5 38q-41 41 -41 105z" />
<glyph unicode="&#xc5;" horiz-adv-x="1466" d="M-25 0v59l138 82l508 1317h219l510 -1343l133 -52v-63h-654v63l179 52l-138 362h-524l-127 -336l213 -82v-59h-457zM377 565h459l-152 400l-76 209h-6l-76 -209zM498 1763q0 94 64 155.5t163 61.5q98 0 161.5 -61.5t63.5 -155.5q0 -93 -63.5 -155t-161.5 -62 q-99 0 -163 61.5t-64 155.5zM625 1763q0 -63 27.5 -101t72.5 -38q43 0 69.5 38t26.5 101t-26.5 101.5t-69.5 38.5q-44 0 -72 -38.5t-28 -101.5z" />
<glyph unicode="&#xc6;" horiz-adv-x="2138" d="M-25 0v57l156 84l815 1200l-190 50v63h1294v-412h-65l-160 324h-482v-588l449 47v-176l-449 47v-608h510l172 344h66v-432h-1241v63l174 52v362h-547l-227 -336l213 -84v-57h-488zM532 565h492v733h-8l-109 -172z" />
<glyph unicode="&#xc7;" horiz-adv-x="1390" d="M68 727q0 362 213 557q216 195 532 195q275 0 502 -115v-328h-66l-184 330q-92 18 -172 18q-232 0 -357.5 -171t-125.5 -486t125.5 -486t357.5 -171q79 0 170 18l186 340h66v-338q-207 -104 -447 -113l-45 -53q89 -23 141 -75.5t52 -116.5q0 -85 -94 -146 q-91 -61 -236 -61l-12 41q60 17 93.5 49t33.5 70q0 79 -113 125l-6 30l104 127l-6 8q-304 9 -510 203q-202 193 -202 549z" />
<glyph unicode="&#xc8;" horiz-adv-x="1357" d="M68 0v63l176 52v1224l-176 52v63h1202v-412h-68l-158 324h-481v-588l447 47v-176l-447 47v-608h510l170 344h68v-432h-1243zM344 1796l4 21l281 102l297 -334l-35 -29z" />
<glyph unicode="&#xc9;" horiz-adv-x="1357" d="M68 0v63l176 52v1224l-176 52v63h1202v-412h-68l-158 324h-481v-588l447 47v-176l-447 47v-608h510l170 344h68v-432h-1243zM477 1585l297 334l281 -102l4 -21l-547 -240z" />
<glyph unicode="&#xca;" horiz-adv-x="1357" d="M68 0v63l176 52v1224l-176 52v63h1202v-412h-68l-158 324h-481v-588l447 47v-176l-447 47v-608h510l170 344h68v-432h-1243zM346 1591l279 303h151l279 -303l-27 -35l-336 144l-319 -144z" />
<glyph unicode="&#xcb;" horiz-adv-x="1357" d="M68 0v63l176 52v1224l-176 52v63h1202v-412h-68l-158 324h-481v-588l447 47v-176l-447 47v-608h510l170 344h68v-432h-1243zM311 1751.5q0 63.5 41 101.5q41 41 102.5 41t102.5 -41q41 -38 41 -101.5t-41 -104.5q-41 -38 -102.5 -38t-102.5 38q-41 41 -41 104.5z M797 1751.5q0 63.5 41 101.5q41 41 102 41t102 -41q41 -38 41 -101.5t-41 -104.5q-41 -38 -102 -38t-102 38q-41 41 -41 104.5z" />
<glyph unicode="&#xcc;" horiz-adv-x="806" d="M6 1796l4 21l281 102l297 -334l-35 -29zM68 0v63l176 52v1224l-176 52v63h669v-63l-174 -52v-1224l174 -52v-63h-669z" />
<glyph unicode="&#xcd;" horiz-adv-x="806" d="M68 0v63l176 52v1224l-176 52v63h669v-63l-174 -52v-1224l174 -52v-63h-669zM221 1585l297 334l281 -102l4 -21l-547 -240z" />
<glyph unicode="&#xce;" horiz-adv-x="806" d="M51 1591l279 303h151l279 -303l-27 -35l-336 144l-319 -144zM68 0v63l176 52v1224l-176 52v63h669v-63l-174 -52v-1224l174 -52v-63h-669z" />
<glyph unicode="&#xcf;" horiz-adv-x="806" d="M18 1751.5q0 63.5 41 101.5q41 41 102.5 41t102.5 -41q41 -38 41 -101.5t-41 -104.5q-41 -38 -102.5 -38t-102.5 38q-41 41 -41 104.5zM68 0v63l176 52v1224l-176 52v63h669v-63l-174 -52v-1224l174 -52v-63h-669zM504 1751.5q0 63.5 41 101.5q41 41 102.5 41t102.5 -41 q41 -38 41 -101.5t-41 -104.5q-41 -38 -102.5 -38t-102.5 38q-41 41 -41 104.5z" />
<glyph unicode="&#xd0;" horiz-adv-x="1603" d="M68 0v63l176 52v563h-176v98h176v563l-176 52v63h714q346 0 549 -182t203 -524q0 -346 -207 -547t-545 -201h-714zM563 88h152q216 0 348 176q131 177 131 486q0 297 -127.5 456.5t-351.5 159.5h-152v-590h289v-98h-289v-590z" />
<glyph unicode="&#xd1;" horiz-adv-x="1531" d="M47 0v59l168 82l8 1184l-176 66v63h453l604 -790l133 -179l8 4l-4 222l-4 602l-236 82v59h506v-59l-166 -82l-6 -1313l-114 -14l-770 1009l-134 179l-6 -5l2 -221l4 -807l236 -82v-59h-506zM393 1642q41 134 106 203.5t136 69.5q73 0 182 -62q107 -61 156 -61 q73 0 139 106l47 -14q-41 -135 -106 -203.5t-135 -68.5q-76 0 -185 59q-109 62 -153 62q-74 0 -138 -107z" />
<glyph unicode="&#xd2;" horiz-adv-x="1589" d="M68 727q0 236 106 408q111 181 268 260q166 84 353 84q184 0 350 -84q157 -79 268 -260q107 -174 107 -408q0 -236 -107 -410q-110 -178 -268 -258q-120 -62 -259.5 -78t-271 13.5t-249.5 112.5t-191 210q-106 172 -106 410zM410 727q0 -319 108 -494q110 -174 277 -174 q162 0 274 177q111 176 111 491q0 317 -111 492q-111 176 -274 176q-166 0 -277 -176q-108 -175 -108 -492zM434 1796l4 21l281 102l297 -334l-35 -29z" />
<glyph unicode="&#xd3;" horiz-adv-x="1589" d="M68 727q0 236 106 408q111 181 268 260q166 84 353 84q184 0 350 -84q157 -79 268 -260q107 -174 107 -408q0 -236 -107 -410q-110 -178 -268 -258q-120 -62 -259.5 -78t-271 13.5t-249.5 112.5t-191 210q-106 172 -106 410zM410 727q0 -319 108 -494q110 -174 277 -174 q162 0 274 177q111 176 111 491q0 317 -111 492q-111 176 -274 176q-166 0 -277 -176q-108 -175 -108 -492zM573 1585l297 334l281 -102l4 -21l-547 -240z" />
<glyph unicode="&#xd4;" horiz-adv-x="1589" d="M68 727q0 236 106 408q111 181 268 260q166 84 353 84q184 0 350 -84q157 -79 268 -260q107 -174 107 -408q0 -236 -107 -410q-110 -178 -268 -258q-120 -62 -259.5 -78t-271 13.5t-249.5 112.5t-191 210q-106 172 -106 410zM410 727q0 -319 108 -494q110 -174 277 -174 q162 0 274 177q111 176 111 491q0 317 -111 492q-111 176 -274 176q-166 0 -277 -176q-108 -175 -108 -492zM440 1591l279 303h151l279 -303l-27 -35l-336 144l-319 -144z" />
<glyph unicode="&#xd5;" horiz-adv-x="1589" d="M68 727q0 236 106 408q111 181 268 260q166 84 353 84q184 0 350 -84q157 -79 268 -260q107 -174 107 -408q0 -236 -107 -410q-110 -178 -268 -258q-120 -62 -259.5 -78t-271 13.5t-249.5 112.5t-191 210q-106 172 -106 410zM410 727q0 -319 108 -494q110 -174 277 -174 q162 0 274 177q111 176 111 491q0 317 -111 492q-111 176 -274 176q-166 0 -277 -176q-108 -175 -108 -492zM412 1642q41 134 105.5 203.5t135.5 69.5q74 0 183 -62q107 -61 155 -61q73 0 139 106l48 -14q-41 -134 -106.5 -203t-135.5 -69q-75 0 -184 59q-109 62 -154 62 q-73 0 -137 -107z" />
<glyph unicode="&#xd6;" horiz-adv-x="1589" d="M68 727q0 236 106 408q111 181 268 260q166 84 353 84q184 0 350 -84q157 -79 268 -260q107 -174 107 -408q0 -236 -107 -410q-110 -178 -268 -258q-120 -62 -259.5 -78t-271 13.5t-249.5 112.5t-191 210q-106 172 -106 410zM408 1751.5q0 63.5 41 101.5q41 41 102 41 t102 -41q41 -38 41 -101.5t-41 -104.5q-41 -38 -102 -38t-102 38q-41 41 -41 104.5zM410 727q0 -319 108 -494q110 -174 277 -174q162 0 274 177q111 176 111 491q0 317 -111 492q-111 176 -274 176q-166 0 -277 -176q-108 -175 -108 -492zM893 1751.5q0 63.5 41 101.5 q41 41 102.5 41t102.5 -41q41 -38 41 -101.5t-41 -104.5q-41 -38 -102.5 -38t-102.5 38q-41 41 -41 104.5z" />
<glyph unicode="&#xd7;" d="M168 369l334 333l-334 334l88 88l334 -333l334 333l88 -88l-334 -334l334 -333l-88 -88l-334 333l-334 -333z" />
<glyph unicode="&#xd8;" horiz-adv-x="1589" d="M68 727q0 236 106 408q111 181 268 260q166 84 353 84q212 0 395 -115l147 213l70 -49l-150 -211q263 -213 263 -590q0 -236 -107 -410q-110 -178 -268 -258q-166 -84 -350 -84q-220 0 -400 113l-145 -211l-70 49l150 211q-262 212 -262 590zM410 727q0 -229 61 -391 l293 412l313 454q-108 193 -282 193q-166 0 -277 -176q-108 -175 -108 -492zM510 252q108 -193 285 -193q162 0 274 177q111 176 111 491q0 223 -64 391l-293 -413z" />
<glyph unicode="&#xd9;" horiz-adv-x="1503" d="M23 1391v63h669v-63l-178 -52v-876q0 -166 92 -263.5t250 -97.5q175 0 273 110t98 298l-6 803l-217 82v59h503v-59l-182 -82l-6 -803q-1 -261 -148.5 -398t-408.5 -137q-256 0 -412 138q-155 137 -155 403v823zM457 1796l4 21l280 102l297 -334l-34 -29z" />
<glyph unicode="&#xda;" horiz-adv-x="1503" d="M23 1391v63h669v-63l-178 -52v-876q0 -166 92 -263.5t250 -97.5q175 0 273 110t98 298l-6 803l-217 82v59h503v-59l-182 -82l-6 -803q-1 -261 -148.5 -398t-408.5 -137q-256 0 -412 138q-155 137 -155 403v823zM623 1585l297 334l280 -102l4 -21l-547 -240z" />
<glyph unicode="&#xdb;" horiz-adv-x="1503" d="M23 1391v63h669v-63l-178 -52v-876q0 -166 92 -263.5t250 -97.5q175 0 273 110t98 298l-6 803l-217 82v59h503v-59l-182 -82l-6 -803q-1 -261 -148.5 -398t-408.5 -137q-256 0 -412 138q-155 137 -155 403v823zM475 1591l279 303h151l279 -303l-27 -35l-336 144 l-319 -144z" />
<glyph unicode="&#xdc;" horiz-adv-x="1503" d="M23 1391v63h669v-63l-178 -52v-876q0 -166 92 -263.5t250 -97.5q175 0 273 110t98 298l-6 803l-217 82v59h503v-59l-182 -82l-6 -803q-1 -261 -148.5 -398t-408.5 -137q-256 0 -412 138q-155 137 -155 403v823zM442 1751.5q0 63.5 41 101.5q41 41 102.5 41t102.5 -41 q41 -38 41 -101.5t-41 -104.5q-41 -38 -102.5 -38t-102.5 38q-41 41 -41 104.5zM928 1751.5q0 63.5 41 101.5q41 41 102.5 41t102.5 -41q41 -38 41 -101.5t-41 -104.5q-41 -38 -102.5 -38t-102.5 38q-41 41 -41 104.5z" />
<glyph unicode="&#xdd;" horiz-adv-x="1449" d="M-2 1391v63h666v-63l-164 -50l245 -417l111 -191h8l109 191l231 391l-207 80v59h463v-59l-147 -80l-412 -668v-532l215 -52v-63h-751v63l215 52v473l-453 753zM614 1585l297 334l281 -102l4 -21l-547 -240z" />
<glyph unicode="&#xde;" horiz-adv-x="1353" d="M68 0v63l176 52v1224l-176 52v63h669v-63l-174 -52v-200h234q240 0 378 -101.5t138 -300.5q0 -205 -150 -313q-149 -107 -389 -107h-211v-202l174 -52v-63h-669zM563 406h115q143 0 222 84.5t79 246.5q0 314 -281 314h-135v-645z" />
<glyph unicode="&#xdf;" horiz-adv-x="1447" d="M27 930v90h168v194q0 211 141 328q143 119 356 119q222 0 357 -117q137 -116 137 -293q0 -121 -84 -231q-82 -104 -240 -139v-9q237 -19 367.5 -137t130.5 -313q0 -207 -143 -326q-145 -121 -349 -121q-131 0 -258 48v327h66l168 -301q209 41 209 342q0 176 -92 297 q-89 121 -265 133v84q102 13 158.5 109.5t56.5 247.5q0 148 -56.5 233.5t-154.5 85.5q-104 0 -161.5 -87.5t-57.5 -256.5v-1237h-434v63l148 52v815h-168z" />
<glyph unicode="&#xe0;" horiz-adv-x="1107" d="M55 240q0 163 151 263t441 120q0 311 -229 311q-96 0 -273 -60l-14 54q192 137 410 137q180 0 286.5 -104t106.5 -310v-440q0 -60 31.5 -80t121.5 -14v-54q-76 -88 -210 -88q-78 0 -138 42.5t-77 119.5l-9 4q-138 -166 -319 -166q-123 0 -201 72t-78 193zM219 1544l10 17 h299l139 -381l-43 -15zM354 287q0 -148 121 -148q90 0 172 64v346q-130 -6 -211.5 -78t-81.5 -184z" />
<glyph unicode="&#xe1;" horiz-adv-x="1107" d="M55 240q0 163 151 263t441 120q0 311 -229 311q-96 0 -273 -60l-14 54q192 137 410 137q180 0 286.5 -104t106.5 -310v-440q0 -60 31.5 -80t121.5 -14v-54q-76 -88 -210 -88q-78 0 -138 42.5t-77 119.5l-9 4q-138 -166 -319 -166q-123 0 -201 72t-78 193zM354 287 q0 -148 121 -148q90 0 172 64v346q-130 -6 -211.5 -78t-81.5 -184zM393 1180l139 381h297l11 -17l-404 -379z" />
<glyph unicode="&#xe2;" horiz-adv-x="1107" d="M55 240q0 163 151 263t441 120q0 311 -229 311q-96 0 -273 -60l-14 54q192 137 410 137q180 0 286.5 -104t106.5 -310v-440q0 -60 31.5 -80t121.5 -14v-54q-76 -88 -210 -88q-78 0 -138 42.5t-77 119.5l-9 4q-138 -166 -319 -166q-123 0 -201 72t-78 193zM215 1167 l252 373h146l249 -373l-34 -26l-297 202l-279 -202zM354 287q0 -148 121 -148q90 0 172 64v346q-130 -6 -211.5 -78t-81.5 -184z" />
<glyph unicode="&#xe3;" horiz-adv-x="1107" d="M55 240q0 163 151 263t441 120q0 311 -229 311q-96 0 -273 -60l-14 54q192 137 410 137q180 0 286.5 -104t106.5 -310v-440q0 -60 31.5 -80t121.5 -14v-54q-76 -88 -210 -88q-78 0 -138 42.5t-77 119.5l-9 4q-138 -166 -319 -166q-123 0 -201 72t-78 193zM166 1245 q41 134 106 203.5t136 69.5q72 0 172 -62q98 -61 145 -61q71 0 139 108l47 -16q-42 -135 -106.5 -204t-134.5 -69q-74 0 -174 62q-98 61 -144 61q-74 0 -137 -106zM354 287q0 -148 121 -148q90 0 172 64v346q-130 -6 -211.5 -78t-81.5 -184z" />
<glyph unicode="&#xe4;" horiz-adv-x="1107" d="M55 240q0 163 151 263t441 120q0 311 -229 311q-96 0 -273 -60l-14 54q192 137 410 137q180 0 286.5 -104t106.5 -310v-440q0 -60 31.5 -80t121.5 -14v-54q-76 -88 -210 -88q-78 0 -138 42.5t-77 119.5l-9 4q-138 -166 -319 -166q-123 0 -201 72t-78 193zM172 1371 q0 64 41 102q41 41 102.5 41t102.5 -41q41 -38 41 -102t-41 -105q-41 -38 -102.5 -38t-102.5 38q-41 41 -41 105zM354 287q0 -148 121 -148q90 0 172 64v346q-130 -6 -211.5 -78t-81.5 -184zM617 1371q0 64 41 102q41 41 102.5 41t102.5 -41q41 -38 41 -102t-41 -105 q-41 -38 -102.5 -38t-102.5 38q-41 41 -41 105z" />
<glyph unicode="&#xe5;" horiz-adv-x="1107" d="M55 240q0 163 151 263t441 120q0 311 -229 311q-96 0 -273 -60l-14 54q192 137 410 137q180 0 286.5 -104t106.5 -310v-440q0 -60 31.5 -80t121.5 -14v-54q-76 -88 -210 -88q-78 0 -138 42.5t-77 119.5l-9 4q-138 -166 -319 -166q-123 0 -201 72t-78 193zM311 1395 q0 94 64.5 155.5t163.5 61.5q98 0 161.5 -61.5t63.5 -155.5q0 -93 -63.5 -155t-161.5 -62q-99 0 -163.5 61.5t-64.5 155.5zM354 287q0 -148 121 -148q90 0 172 64v346q-130 -6 -211.5 -78t-81.5 -184zM438 1395q0 -63 28 -101.5t73 -38.5q43 0 69.5 38.5t26.5 101.5 t-26.5 101t-69.5 38q-45 0 -73 -38t-28 -101z" />
<glyph unicode="&#xe6;" horiz-adv-x="1648" d="M55 240q0 163 151.5 264t440.5 119q0 311 -229 311q-96 0 -273 -60l-14 54q186 137 410 137q193 0 295 -141h6q129 141 319 141q226 0 337 -146.5t69 -406.5h-613q4 -205 80 -294t228 -89q137 0 270 47l18 -51q-77 -71 -183 -110.5t-212 -39.5q-134 0 -245.5 53 t-176.5 154h-8q-165 -207 -387 -207q-125 0 -204 71.5t-79 193.5zM354 287q0 -69 34 -108.5t95 -39.5q118 0 217 105q-63 123 -51 305q-131 -6 -213 -78t-82 -184zM954 582l344 18q13 183 -25 284t-114 101q-83 0 -140.5 -106t-64.5 -297z" />
<glyph unicode="&#xe7;" horiz-adv-x="1019" d="M68 520q0 232 157 389q156 156 416 156q152 0 297 -53v-328h-66l-163 297q-133 9 -236 -94q-98 -101 -98 -338q0 -205 87.5 -312.5t239.5 -107.5q122 0 252 47l19 -51q-130 -124 -316 -145l-47 -56q89 -23 140 -75.5t51 -116.5q0 -85 -94 -146q-91 -61 -236 -61l-10 41 q60 17 93.5 49t33.5 70q0 79 -113 125l-6 30l102 127l-6 10q-210 12 -354 156q-143 143 -143 387z" />
<glyph unicode="&#xe8;" horiz-adv-x="1071" d="M68 500q-1 132 44.5 243t119.5 181t165.5 107.5t186.5 33.5q226 0 336.5 -146.5t68.5 -406.5h-614q1 -205 77.5 -294t229.5 -89q136 0 272 47l19 -51q-77 -71 -183 -110.5t-212 -39.5q-219 0 -365 134q-145 136 -145 391zM262 1544l10 17h299l139 -381l-43 -15zM375 580 l346 20q13 187 -23.5 286t-115.5 99q-83 0 -141.5 -106t-65.5 -299z" />
<glyph unicode="&#xe9;" horiz-adv-x="1071" d="M68 500q-1 132 44.5 243t119.5 181t165.5 107.5t186.5 33.5q226 0 336.5 -146.5t68.5 -406.5h-614q1 -205 77.5 -294t229.5 -89q136 0 272 47l19 -51q-77 -71 -183 -110.5t-212 -39.5q-219 0 -365 134q-145 136 -145 391zM375 580l346 20q13 187 -23.5 286t-115.5 99 q-83 0 -141.5 -106t-65.5 -299zM442 1180l140 381h297l10 -17l-404 -379z" />
<glyph unicode="&#xea;" horiz-adv-x="1071" d="M68 500q-1 132 44.5 243t119.5 181t165.5 107.5t186.5 33.5q226 0 336.5 -146.5t68.5 -406.5h-614q1 -205 77.5 -294t229.5 -89q136 0 272 47l19 -51q-77 -71 -183 -110.5t-212 -39.5q-219 0 -365 134q-145 136 -145 391zM250 1167l252 373h146l249 -373l-34 -26 l-297 202l-279 -202zM375 580l346 20q13 187 -23.5 286t-115.5 99q-83 0 -141.5 -106t-65.5 -299z" />
<glyph unicode="&#xeb;" horiz-adv-x="1071" d="M68 500q-1 132 44.5 243t119.5 181t165.5 107.5t186.5 33.5q226 0 336.5 -146.5t68.5 -406.5h-614q1 -205 77.5 -294t229.5 -89q136 0 272 47l19 -51q-77 -71 -183 -110.5t-212 -39.5q-219 0 -365 134q-145 136 -145 391zM209 1371q0 64 41 102q41 41 102.5 41t102.5 -41 q41 -38 41 -102t-41 -105q-41 -38 -102.5 -38t-102.5 38q-41 41 -41 105zM375 580l346 20q13 187 -23.5 286t-115.5 99q-83 0 -141.5 -106t-65.5 -299zM653 1371q0 64 41 102q41 41 102.5 41t102.5 -41q41 -38 41 -102t-41 -105q-41 -38 -102.5 -38t-102.5 38 q-41 41 -41 105z" />
<glyph unicode="&#xec;" horiz-adv-x="675" d="M23 1544l10 17h299l139 -381l-43 -15zM47 0v63l148 52v766l-148 45v59l416 80l18 -16v-934l148 -52v-63h-582z" />
<glyph unicode="&#xed;" horiz-adv-x="675" d="M47 0v63l148 52v766l-148 45v59l416 80l18 -16v-934l148 -52v-63h-582zM207 1180l139 381h297l10 -17l-403 -379z" />
<glyph unicode="&#xee;" horiz-adv-x="675" d="M16 1167l252 373h146l249 -373l-34 -26l-297 202l-279 -202zM47 0v63l148 52v766l-148 45v59l416 80l18 -16v-934l148 -52v-63h-582z" />
<glyph unicode="&#xef;" horiz-adv-x="675" d="M0 1370q0 63 41 103t104 40q62 0 103 -40t41 -103t-41 -103t-103 -40q-63 0 -104 40t-41 103zM47 0v63l148 52v766l-148 45v59l416 80l18 -16v-934l148 -52v-63h-582zM387 1370q0 63 40.5 103t102.5 40q63 0 103.5 -40t40.5 -103t-40.5 -103t-103.5 -40q-62 0 -102.5 40 t-40.5 103z" />
<glyph unicode="&#xf0;" horiz-adv-x="1189" d="M68 520q0 255 139 400t330 145q110 0 208 -49l9 4q-49 158 -150 293l-313 -154l-43 88l291 144q-124 127 -303 213v34h229q144 -54 264 -153l324 160l43 -89l-291 -143q149 -150 233 -353t84 -427q0 -319 -151 -490q-149 -168 -375 -168q-215 0 -373 146 q-155 146 -155 399zM375 518q0 -224 58.5 -343.5t162.5 -119.5q102 0 160.5 125t58.5 359q0 233 -39 393q-68 26 -145 26q-256 0 -256 -440z" />
<glyph unicode="&#xf1;" horiz-adv-x="1320" d="M47 0v63l148 52v766l-148 45v59l416 80l18 -16v-134l8 -4q145 154 345 154q144 0 228.5 -84.5t84.5 -259.5v-606l147 -52v-63h-567v63l133 52v614q0 186 -151 186q-107 0 -228 -75v-725l133 -52v-63h-567zM299 1245q41 134 106 203.5t136 69.5q72 0 172 -62 q98 -61 145 -61q72 0 139 108l47 -16q-42 -135 -106.5 -204t-134.5 -69q-79 0 -174 62q-94 61 -144 61q-74 0 -137 -106z" />
<glyph unicode="&#xf2;" horiz-adv-x="1189" d="M68 520q0 255 155 398q156 147 373 147q213 0 369 -147q157 -145 157 -398q0 -251 -157 -399q-158 -146 -369 -146q-215 0 -373 146q-155 146 -155 399zM281 1544l10 17h299l139 -381l-43 -15zM375 520q0 -225 58.5 -345t162.5 -120q102 0 160.5 120.5t58.5 344.5 t-58.5 344.5t-160.5 120.5q-104 0 -162.5 -120t-58.5 -345z" />
<glyph unicode="&#xf3;" horiz-adv-x="1189" d="M68 520q0 255 155 398q156 147 373 147q213 0 369 -147q157 -145 157 -398q0 -251 -157 -399q-158 -146 -369 -146q-215 0 -373 146q-155 146 -155 399zM375 520q0 -225 58.5 -345t162.5 -120q102 0 160.5 120.5t58.5 344.5t-58.5 344.5t-160.5 120.5q-104 0 -162.5 -120 t-58.5 -345zM461 1180l139 381h297l10 -17l-403 -379z" />
<glyph unicode="&#xf4;" horiz-adv-x="1189" d="M68 520q0 255 155 398q156 147 373 147q213 0 369 -147q157 -145 157 -398q0 -251 -157 -399q-158 -146 -369 -146q-215 0 -373 146q-155 146 -155 399zM270 1167l252 373h146l249 -373l-34 -26l-297 202l-279 -202zM375 520q0 -225 58.5 -345t162.5 -120 q102 0 160.5 120.5t58.5 344.5t-58.5 344.5t-160.5 120.5q-104 0 -162.5 -120t-58.5 -345z" />
<glyph unicode="&#xf5;" horiz-adv-x="1189" d="M68 520q0 255 155 398q156 147 373 147q213 0 369 -147q157 -145 157 -398q0 -251 -157 -399q-158 -146 -369 -146q-215 0 -373 146q-155 146 -155 399zM221 1245q41 134 106 203.5t136 69.5q72 0 172 -62q98 -61 145 -61q72 0 140 108l47 -16q-42 -135 -107 -204 t-135 -69q-79 0 -174 62q-94 61 -143 61q-75 0 -138 -106zM375 520q0 -225 58.5 -345t162.5 -120q102 0 160.5 120.5t58.5 344.5t-58.5 344.5t-160.5 120.5q-104 0 -162.5 -120t-58.5 -345z" />
<glyph unicode="&#xf6;" horiz-adv-x="1189" d="M68 520q0 255 155 398q156 147 373 147q213 0 369 -147q157 -145 157 -398q0 -251 -157 -399q-158 -146 -369 -146q-215 0 -373 146q-155 146 -155 399zM229 1371q0 64 41 102q41 41 102.5 41t102.5 -41q41 -38 41 -102t-41 -105q-41 -38 -102.5 -38t-102.5 38 q-41 41 -41 105zM375 520q0 -225 58.5 -345t162.5 -120q102 0 160.5 120.5t58.5 344.5t-58.5 344.5t-160.5 120.5q-104 0 -162.5 -120t-58.5 -345zM674 1371q0 64 41 102q41 41 102.5 41t102.5 -41q41 -38 41 -102t-41 -105q-41 -38 -102.5 -38t-102.5 38q-41 41 -41 105z " />
<glyph unicode="&#xf7;" d="M102 639v127h975v-127h-975zM455 270q0 60 38.5 99t98.5 39q57 0 96 -39t39 -99t-37.5 -98.5t-97.5 -38.5t-98.5 38.5t-38.5 98.5zM455 1137q0 57 38.5 96t98.5 39q57 0 96 -39t39 -96q0 -62 -37.5 -101t-97.5 -39t-98.5 39.5t-38.5 100.5z" />
<glyph unicode="&#xf8;" horiz-adv-x="1189" d="M68 520q0 255 155 398q156 147 373 147q158 0 285 -80l123 170l65 -45l-125 -172q178 -153 178 -418q0 -251 -157 -399q-158 -146 -369 -146q-160 0 -291 82l-123 -172l-65 45l127 172q-176 150 -176 418zM375 520q0 -124 18 -215l170 234l207 290q-59 156 -174 156 q-104 0 -162.5 -120t-58.5 -345zM418 215q59 -160 178 -160q102 0 160.5 120.5t58.5 344.5q0 126 -18 217l-174 -235z" />
<glyph unicode="&#xf9;" horiz-adv-x="1294" d="M27 926v59l415 80l19 -16v-738q0 -188 153 -188q104 0 226 78v680l-148 45v59l416 80l18 -16v-889l148 -45v-60l-416 -80l-18 17v133l-9 4q-145 -154 -344 -154q-143 0 -228 85.5t-85 258.5v562zM338 1544l10 17h299l139 -381l-43 -15z" />
<glyph unicode="&#xfa;" horiz-adv-x="1294" d="M27 926v59l415 80l19 -16v-738q0 -188 153 -188q104 0 226 78v680l-148 45v59l416 80l18 -16v-889l148 -45v-60l-416 -80l-18 17v133l-9 4q-145 -154 -344 -154q-143 0 -228 85.5t-85 258.5v562zM516 1180l139 381h297l11 -17l-404 -379z" />
<glyph unicode="&#xfb;" horiz-adv-x="1294" d="M27 926v59l415 80l19 -16v-738q0 -188 153 -188q104 0 226 78v680l-148 45v59l416 80l18 -16v-889l148 -45v-60l-416 -80l-18 17v133l-9 4q-145 -154 -344 -154q-143 0 -228 85.5t-85 258.5v562zM327 1167l252 373h146l249 -373l-34 -26l-297 202l-279 -202z" />
<glyph unicode="&#xfc;" horiz-adv-x="1294" d="M27 926v59l415 80l19 -16v-738q0 -188 153 -188q104 0 226 78v680l-148 45v59l416 80l18 -16v-889l148 -45v-60l-416 -80l-18 17v133l-9 4q-145 -154 -344 -154q-143 0 -228 85.5t-85 258.5v562zM285 1371q0 64 41 102q41 41 102 41t102 -41q41 -38 41 -102t-41 -105 q-41 -38 -102 -38t-102 38q-41 41 -41 105zM729 1371q0 64 41 102q41 41 102.5 41t102.5 -41q41 -38 41 -102t-41 -105q-41 -38 -102.5 -38t-102.5 38q-41 41 -41 105z" />
<glyph unicode="&#xfd;" horiz-adv-x="1126" d="M-31 977v63h568v-63l-144 -51l195 -465l82 -205h8l80 205l184 448l-174 68v63h389v-63l-115 -68l-608 -1415l-274 100l-2 25l354 293l-432 1014zM467 1180l139 381h297l10 -17l-403 -379z" />
<glyph unicode="&#xfe;" horiz-adv-x="1261" d="M27 -387l147 51v1815l-147 45v59l415 80l19 -16v-732l8 -4q145 154 326 154q160 0 278 -139q119 -137 119 -391q0 -269 -148 -414q-149 -146 -346 -146q-130 0 -237 58v-369l188 -51v-64h-622v64zM461 113q76 -33 166 -33q119 0 189.5 112.5t70.5 323.5q0 393 -225 393 q-100 0 -201 -73v-723z" />
<glyph unicode="&#xff;" horiz-adv-x="1126" d="M-31 977v63h568v-63l-144 -51l195 -465l82 -205h8l80 205l184 448l-174 68v63h389v-63l-115 -68l-608 -1415l-274 100l-2 25l354 293l-432 1014zM233 1371q0 64 41 102q41 41 102.5 41t102.5 -41q41 -38 41 -102t-41 -105q-41 -38 -102.5 -38t-102.5 38q-41 41 -41 105z M678 1371q0 64 41 102q41 41 102.5 41t102.5 -41q41 -38 41 -102t-41 -105q-41 -38 -102.5 -38t-102.5 38q-41 41 -41 105z" />
<glyph unicode="&#x152;" horiz-adv-x="2199" d="M68 727q0 362 213 557q216 195 532 195q113 0 238 -25h1060v-412h-65l-160 324h-481v-588l448 47v-176l-448 47v-608h512l170 344h65v-432h-1101q-122 -25 -238 -25q-316 0 -532 195q-213 195 -213 557zM410 727q0 -314 126 -485.5t359 -171.5q85 0 190 24v1266 q-111 24 -190 24q-232 0 -358.5 -171t-126.5 -486z" />
<glyph unicode="&#x153;" horiz-adv-x="1818" d="M68 520q0 255 155 398q156 147 373 147q234 0 371 -180h8q137 180 358 180q229 0 338.5 -146t65.5 -407h-611q4 -207 79 -295t227 -88q136 0 272 47l16 -51q-74 -71 -180 -110.5t-213 -39.5q-235 0 -364 166h-9q-138 -166 -358 -166q-215 0 -373 146q-155 146 -155 399z M375 520q0 -225 58.5 -345t162.5 -120q102 0 160.5 120.5t58.5 344.5t-58.5 344.5t-160.5 120.5q-104 0 -162.5 -120t-58.5 -345zM1126 582l344 18q13 183 -25 284t-114 101q-84 0 -141 -106t-64 -297z" />
<glyph unicode="&#x178;" horiz-adv-x="1449" d="M-2 1391v63h666v-63l-164 -50l245 -417l111 -191h8l109 191l231 391l-207 80v59h463v-59l-147 -80l-412 -668v-532l215 -52v-63h-751v63l215 52v473l-453 753zM395 1751.5q0 63.5 41 101.5q41 41 102.5 41t102.5 -41q41 -38 41 -101.5t-41 -104.5q-41 -38 -102.5 -38 t-102.5 38q-41 41 -41 104.5zM881 1751.5q0 63.5 41 101.5q41 41 102 41t102 -41q41 -38 41 -101.5t-41 -104.5q-41 -38 -102 -38t-102 38q-41 41 -41 104.5z" />
<glyph unicode="&#x2c6;" horiz-adv-x="843" d="M98 1167l252 373h146l249 -373l-34 -26l-297 202l-279 -202z" />
<glyph unicode="&#x2dc;" horiz-adv-x="954" d="M104 1245q41 134 106 203.5t136 69.5q72 0 172 -62q98 -61 146 -61q72 0 139 108l47 -16q-42 -135 -107 -204t-135 -69q-74 0 -174 62q-98 61 -143 61q-74 0 -137 -106z" />
<glyph unicode="&#x2000;" horiz-adv-x="990" />
<glyph unicode="&#x2001;" horiz-adv-x="1980" />
<glyph unicode="&#x2002;" horiz-adv-x="990" />
<glyph unicode="&#x2003;" horiz-adv-x="1980" />
<glyph unicode="&#x2004;" horiz-adv-x="660" />
<glyph unicode="&#x2005;" horiz-adv-x="495" />
<glyph unicode="&#x2006;" horiz-adv-x="330" />
<glyph unicode="&#x2007;" horiz-adv-x="330" />
<glyph unicode="&#x2008;" horiz-adv-x="247" />
<glyph unicode="&#x2009;" horiz-adv-x="396" />
<glyph unicode="&#x200a;" horiz-adv-x="110" />
<glyph unicode="&#x2010;" horiz-adv-x="698" d="M88 426v192h522v-192h-522z" />
<glyph unicode="&#x2011;" horiz-adv-x="698" d="M88 426v192h522v-192h-522z" />
<glyph unicode="&#x2012;" horiz-adv-x="698" d="M88 426v192h522v-192h-522z" />
<glyph unicode="&#x2013;" horiz-adv-x="1024" d="M82 434v176h860v-176h-860z" />
<glyph unicode="&#x2014;" horiz-adv-x="2048" d="M82 434v176h1884v-176h-1884z" />
<glyph unicode="&#x2018;" horiz-adv-x="473" d="M16 1137q0 165 109 274q107 107 268 148l19 -48q-110 -47 -150 -141q-40 -92 2 -168q41 -75 137 -72q35 -35 42 -84t-11.5 -92t-63 -73.5t-104.5 -30.5q-108 0 -178 81.5t-70 205.5z" />
<glyph unicode="&#x2019;" horiz-adv-x="473" d="M36.5 1362q-7.5 49 11 92.5t64 74t105.5 30.5q106 0 176 -82t70 -205q0 -166 -109 -275q-106 -106 -268 -147l-18 47q135 60 161 180q24 108 -45 168q-42 36 -104 33q-36 35 -43.5 84z" />
<glyph unicode="&#x201a;" horiz-adv-x="473" d="M36.5 143q-7.5 49 11 92.5t64 74t105.5 30.5q106 0 176 -82t70 -205q0 -165 -109 -274q-107 -107 -268 -148l-18 47q134 60 161 181q24 108 -45 168q-41 35 -104 32q-36 35 -43.5 84z" />
<glyph unicode="&#x201c;" horiz-adv-x="952" d="M16 1137q0 165 109 274q107 107 268 148l19 -48q-110 -47 -150 -141q-40 -92 2 -168q41 -75 137 -72q35 -35 42 -84t-11.5 -92t-63 -73.5t-104.5 -30.5q-108 0 -178 81.5t-70 205.5zM496 1137q0 166 108 274q107 107 268 148l19 -48q-110 -47 -150 -141q-41 -94 0 -168 q44 -75 140 -72q35 -35 41.5 -84t-12 -92t-63 -73.5t-104.5 -30.5q-108 0 -177.5 81.5t-69.5 205.5z" />
<glyph unicode="&#x201d;" horiz-adv-x="952" d="M36.5 1362q-7.5 49 11 92.5t64 74t105.5 30.5q106 0 176 -82t70 -205q0 -166 -109 -275q-106 -106 -268 -147l-18 47q135 60 161 180q24 108 -45 168q-42 36 -104 33q-36 35 -43.5 84zM516.5 1362q-7.5 49 10.5 92.5t62.5 74t104.5 30.5q108 0 178 -81.5t70 -205.5 q0 -167 -108 -275q-105 -105 -269 -147l-18 47q136 60 162 180q24 108 -45 168q-42 36 -105 33q-35 35 -42.5 84z" />
<glyph unicode="&#x201e;" horiz-adv-x="952" d="M36.5 143q-7.5 49 11 92.5t64 74t105.5 30.5q106 0 176 -82t70 -205q0 -165 -109 -274q-107 -107 -268 -148l-18 47q134 60 161 181q24 108 -45 168q-41 35 -104 32q-36 35 -43.5 84zM516.5 143q-7.5 49 10.5 92.5t62.5 74t104.5 30.5q108 0 178 -81.5t70 -205.5 q0 -166 -108 -274q-107 -107 -269 -148l-18 47q135 60 162 181q24 108 -45 168q-41 35 -105 32q-35 35 -42.5 84z" />
<glyph unicode="&#x2022;" horiz-adv-x="729" d="M102 727q0 114 74 188t189 74q114 0 188 -74t74 -188t-74 -188t-188 -74q-115 0 -189 74t-74 188z" />
<glyph unicode="&#x2026;" horiz-adv-x="1957" d="M84 162q0 80 53 132t135 52q78 0 131.5 -52.5t53.5 -131.5t-53.5 -133t-131.5 -54q-81 0 -134.5 53.5t-53.5 133.5zM793 162q0 78 53 131q54 54 133 54t133 -54q53 -53 53 -131q0 -80 -53 -133q-54 -54 -133 -54t-133 54q-53 53 -53 133zM1501 162q0 80 52.5 132 t134.5 52q80 0 133 -52.5t53 -131.5q0 -80 -53.5 -133.5t-132.5 -53.5q-81 0 -134 53.5t-53 133.5z" />
<glyph unicode="&#x202f;" horiz-adv-x="396" />
<glyph unicode="&#x2039;" horiz-adv-x="749" d="M76 498v45l567 418l35 -35l-285 -398l285 -413l-35 -35z" />
<glyph unicode="&#x203a;" horiz-adv-x="749" d="M70 115l286 397l-286 414l36 35l568 -418v-45l-568 -418z" />
<glyph unicode="&#x205f;" horiz-adv-x="495" />
<glyph unicode="&#x20ac;" horiz-adv-x="1228" d="M-12 541v71h149q-4 98 -4 115q0 52 2 66h-147v71h151q35 302 209 457q178 158 418 158q235 0 430 -115v-328h-66l-204 342q-47 8 -80 8q-150 0 -247.5 -137t-117.5 -385h490l-19 -71h-477v-66q0 -21 4 -115h426l-20 -71h-396q35 -197 145 -301.5t281 -104.5q141 0 308 66 l18 -54q-199 -172 -475 -172q-227 0 -401 142q-171 140 -218 424h-159z" />
<glyph unicode="&#x2122;" horiz-adv-x="1875" d="M102 1227v227h674v-227h-51l-92 162h-84v-504l88 -33v-49h-395v49l88 33v504h-84l-92 -162h-52zM793 803v47l73 45l66 467l-78 43v49h295l115 -326l24 -81h8l27 83l98 324h289v-49l-80 -31l70 -489l69 -33v-49h-362v49l84 33l-39 309l-10 90h-6l-25 -80l-133 -401h-117 l-141 401l-27 86h-8l-8 -86l-37 -309l107 -45v-47h-254z" />
<glyph unicode="&#x25fc;" horiz-adv-x="1044" d="M0 0v1044h1044v-1044h-1044z" />
</font>
</defs>
</svg>
